<svg 
 xmlns="http://www.w3.org/2000/svg"
 xmlns:xlink="http://www.w3.org/1999/xlink"
 width="25px" height="25px">
<path fill-rule="evenodd"  fill="rgb(0, 0, 0)"
 d="M13.311,12.750 L24.025,23.464 C24.356,23.795 24.387,24.301 24.094,24.594 C23.801,24.887 23.295,24.856 22.964,24.525 L12.250,13.811 L1.536,24.525 C1.205,24.856 0.699,24.887 0.406,24.594 C0.113,24.301 0.144,23.795 0.475,23.464 L11.189,12.750 L0.475,2.036 C0.144,1.705 0.113,1.199 0.406,0.906 C0.699,0.613 1.205,0.644 1.536,0.975 L12.250,11.689 L22.964,0.975 C23.295,0.644 23.801,0.613 24.094,0.906 C24.387,1.199 24.356,1.705 24.025,2.036 L13.311,12.750 Z"/>
</svg>